<?xml version="1.0" standalone="no"?>
<!DOCTYPE svg PUBLIC "-//W3C//DTD SVG 20010904//EN"
 "http://www.w3.org/TR/2001/REC-SVG-20010904/DTD/svg10.dtd">
<svg version="1.0" xmlns="http://www.w3.org/2000/svg"
 width="360.000000pt" height="360.000000pt" viewBox="0 0 360.000000 360.000000"
 preserveAspectRatio="xMidYMid meet">

<g transform="translate(0.000000,360.000000) scale(0.100000,-0.100000)"
fill="#000000" stroke="none">
<path d="M835 3235 c-154 -35 -281 -103 -392 -209 -134 -126 -220 -274 -270
-464 -23 -86 -26 -117 -27 -277 -1 -154 2 -195 22 -284 78 -349 254 -640 567
-939 248 -237 629 -500 968 -668 l97 -49 98 49 c153 76 293 159 477 281 537
359 867 734 1009 1149 48 138 67 242 73 397 9 225 -21 378 -109 554 -106 214
-269 357 -499 437 -93 33 -96 33 -274 32 -214 -1 -282 -15 -443 -95 -86 -42
-120 -66 -197 -139 -51 -49 -104 -92 -118 -95 -32 -9 -75 14 -117 61 -94 108
-241 195 -401 240 -78 21 -120 26 -249 30 -108 2 -173 -1 -215 -11z m316 -95
c30 -5 73 -15 96 -21 37 -10 41 -14 33 -30 -6 -10 -10 -33 -10 -51 0 -18 -12
-58 -26 -87 -32 -71 -129 -197 -174 -228 -19 -13 -60 -41 -90 -62 -30 -21 -61
-36 -69 -33 -9 3 -12 1 -7 -6 4 -7 1 -12 -9 -12 -9 0 -13 -5 -10 -10 4 -6 3
-10 -2 -9 -15 4 -105 -14 -166 -32 -34 -10 -66 -15 -71 -11 -6 5 -45 9 -86 11
-69 2 -168 29 -194 53 -6 4 -18 8 -28 8 -26 0 -23 16 20 106 106 218 311 375
540 414 68 11 191 12 253 0z m1377 3 c-9 -2 -41 -36 -69 -75 -84 -112 -217
-211 -348 -257 -28 -10 -54 -21 -58 -24 -3 -4 -20 -7 -38 -7 -17 0 -36 -5 -43
-12 -9 -9 -12 -6 -12 16 0 49 42 118 120 196 114 114 242 169 395 168 39 0 62
-2 53 -5z"/>
</g>
</svg>
